<?xml version="1.0" standalone="no"?>
<!DOCTYPE svg PUBLIC "-//W3C//DTD SVG 20010904//EN"
 "http://www.w3.org/TR/2001/REC-SVG-20010904/DTD/svg10.dtd">
<svg version="1.0" xmlns="http://www.w3.org/2000/svg"
 width="400.000000pt" height="400.000000pt" viewBox="0 0 400.000000 400.000000"
 preserveAspectRatio="xMidYMid meet">
<metadata>
Created by potrace 1.11, written by Peter Selinger 2001-2013
</metadata>
<g transform="translate(0.000000,400.000000) scale(0.100000,-0.100000)"
fill="#000000" stroke="none">
<path d="M1726 3903 c-2 -2 -35 -6 -73 -8 -37 -3 -68 -5 -68 -6 0 0 -15 -2
-33 -4 -19 -2 -41 -6 -50 -10 -10 -3 -35 -9 -57 -12 -22 -3 -42 -9 -43 -14 -2
-5 -7 -7 -11 -4 -5 2 -51 -17 -104 -44 -53 -27 -99 -46 -101 -43 -3 3 -8 -3
-12 -12 -3 -9 -12 -16 -19 -16 -8 0 -20 -6 -27 -13 -7 -7 -30 -23 -50 -36 -21
-12 -38 -27 -38 -32 0 -5 -5 -9 -11 -9 -29 0 -199 -225 -199 -263 0 -10 -7
-20 -15 -23 -8 -3 -17 -21 -21 -40 -3 -19 -10 -34 -15 -34 -5 0 -9 -9 -9 -19
0 -11 -4 -23 -10 -26 -5 -3 -10 -19 -10 -36 0 -16 -4 -29 -9 -29 -5 0 -12 -15
-15 -34 -7 -39 -17 -44 -91 -46 -55 -1 -68 -3 -137 -14 -27 -5 -48 -12 -48
-17 0 -5 -7 -9 -15 -9 -16 0 -87 -31 -95 -42 -3 -3 -18 -10 -33 -13 -15 -4
-27 -11 -27 -16 0 -5 -6 -9 -13 -9 -35 0 -167 -133 -204 -205 -14 -27 -27 -66
-29 -85 -2 -19 -7 -46 -10 -60 -11 -40 -13 -233 -3 -252 5 -9 5 -19 0 -22 -4
-3 -7 -18 -5 -33 13 -100 16 -178 19 -518 2 -209 5 -396 7 -417 1 -20 -4 -44
-13 -54 -7 -10 -9 -15 -2 -11 9 6 11 -44 8 -203 -1 -119 1 -213 6 -216 5 -3 6
-11 2 -17 -9 -15 -13 -61 -12 -162 0 -44 1 -131 1 -192 1 -62 4 -113 8 -113 5
0 4 -16 0 -35 -5 -20 -4 -38 2 -41 5 -3 8 -13 7 -22 -5 -51 3 -121 15 -137 13
-18 29 -20 236 -20 122 0 224 3 226 7 3 4 16 3 31 -3 17 -6 30 -6 38 1 9 8 15
8 20 0 3 -6 12 -7 18 -3 17 10 76 12 83 2 2 -4 16 -4 29 1 15 6 27 6 30 0 4
-7 13 -6 25 0 13 7 21 7 25 0 3 -5 11 -10 16 -10 6 0 7 5 3 12 -5 7 -3 8 7 3
7 -5 126 -10 263 -11 137 -2 255 -5 262 -8 7 -3 16 -1 19 4 3 5 18 5 33 2 15
-4 97 -7 182 -7 94 0 158 -4 162 -10 5 -7 8 -6 8 1 0 12 157 13 176 2 5 -4 16
-3 23 1 13 8 180 5 189 -4 2 -2 13 0 23 6 11 5 19 6 19 2 0 -9 35 -10 535 -17
485 -6 595 -10 595 -18 0 -4 10 -4 23 1 12 5 32 5 45 0 12 -5 22 -5 22 0 0 5
9 7 21 4 20 -6 52 7 100 38 14 10 59 34 100 55 94 47 218 126 248 158 19 20
24 37 25 83 1 32 4 63 8 68 3 6 5 25 3 43 -1 17 0 32 4 32 3 0 7 30 7 68 3
142 12 407 14 412 3 5 9 99 10 138 0 12 5 22 11 22 5 0 7 5 3 12 -8 13 -7 80
3 112 4 13 2 16 -7 11 -9 -6 -11 -4 -5 5 5 7 10 122 12 254 2 133 5 247 8 254
2 6 1 12 -3 12 -4 0 -8 60 -9 133 -3 205 -17 359 -40 432 -3 11 -7 29 -9 40
-3 29 -43 138 -54 149 -6 6 -10 16 -10 23 0 19 -66 118 -105 158 -19 19 -35
37 -35 41 0 8 -43 43 -53 44 -5 0 -29 16 -54 35 -25 19 -50 35 -55 35 -6 0
-26 7 -46 16 -21 9 -46 19 -57 24 -11 4 -31 13 -45 19 -14 7 -32 13 -40 15
-29 5 -105 28 -115 34 -5 4 -12 7 -15 7 -3 1 -23 6 -44 13 -22 6 -43 9 -47 6
-4 -2 -12 4 -18 13 -7 12 -11 13 -11 5 0 -8 -6 -12 -12 -9 -7 2 -23 0 -35 -4
-16 -6 -23 -5 -23 3 0 9 -3 9 -12 0 -17 -17 -26 -15 -33 11 -4 12 -29 69 -56
126 -27 57 -49 107 -49 112 0 5 -4 9 -10 9 -5 0 -10 5 -10 11 0 6 -6 16 -12
24 -7 7 -24 28 -38 46 -41 54 -152 160 -217 206 -62 44 -219 126 -268 139 -5
1 -39 14 -74 28 -35 14 -68 23 -72 20 -5 -3 -9 0 -9 6 0 6 -4 9 -9 6 -5 -3
-27 1 -50 9 -23 8 -41 12 -41 10 0 -2 -15 1 -32 7 -33 10 -333 20 -342 11z"/>
</g>
</svg>
